<svg xmlns:inkscape="http://www.inkscape.org/namespaces/inkscape" xmlns:sodipodi="http://sodipodi.sourceforge.net/DTD/sodipodi-0.dtd" xmlns="http://www.w3.org/2000/svg" xmlns:svg="http://www.w3.org/2000/svg" height="41.209999" viewBox="0 0 114 41.21" width="114" id="svg20" sodipodi:docname="cfm-logo.svg"><defs id="defs20"></defs><g fill="#4d87a0" id="g7"><path d="m 100.5,2 h 2.285 l 10.037,15.749 0.571,-0.9 L 103.351,1.1 H 98.7 l 12.241,19.34 0.571,-0.9 z" transform="translate(-18.157,-0.202)" id="path1"></path><path d="m 3.606,23.156 a 17.331,17.331 0 0 1 2.611,-9.14 L 5.238,13.2 A 18.058,18.058 0 0 0 2.3,23.156 16.179,16.179 0 0 0 2.545,26.012 L 3.769,25.6 A 12.353,12.353 0 0 1 3.606,23.152" transform="translate(-0.423,-2.428)" id="path2"></path><path d="m 51.814,4.854 h 1.632 v 13.383 h 3.019 v -0.9 H 54.343 V 4.854 h 19.1 v -0.9 L 54.343,3.872 V 2 h 19.1 V 1.1 H 53.446 V 3.956 L 50.1,3.875 h 1.714 z" transform="translate(-9.217,-0.202)" id="path3"></path><path d="m 6,23.579 c 0,0.653 0.082,1.306 0.082,1.958 L 7.143,25.211 A 10.4,10.4 0 0 1 7.061,23.579 14.494,14.494 0 0 1 9.1,16.153 L 8.285,15.5 A 15.268,15.268 0 0 0 6,23.579" transform="translate(-1.104,-2.851)" id="path4"></path><path d="m 21.807,42.19 a 15.46,15.46 0 0 0 11.18,-4.733 L 32.253,36.723 A 14.5,14.5 0 0 1 8.179,31.5 L 7.2,31.826 A 15.465,15.465 0 0 0 21.807,42.19" transform="translate(-1.325,-5.795)" id="path5"></path><path d="m 22.506,7.261 a 14.368,14.368 0 0 1 10.2,4.243 L 33.44,10.77 A 15.582,15.582 0 0 0 11,11.178 l 0.816,0.653 a 15.129,15.129 0 0 1 10.69,-4.57" transform="translate(-2.024,-1.141)" id="path6"></path><path d="M 98.612,39.508 98.53,20.984 92.9,11.6 v 1.8 l 1.8,2.938 v 23.17 h 1.061 V 18.047 l 1.877,3.183 v 18.278 z" transform="translate(-17.09,-2.134)" id="path7"></path></g><g fill="#003864" id="g12"><path d="M 51.538,38.365 V 4.5 H 48.6 v 36.722 h 8.568 v -2.857 z" transform="translate(-8.941,-0.828)" id="path8"></path><path d="M 60.675,15.462 V 9.995 H 77.648 V 1.1 H 74.874 V 7.22 H 57.9 v 11.017 h 16.892 v 5.631 H 60.838 v 3.264 h 16.81 v -11.67 z" transform="translate(-10.652,-0.202)" id="path9"></path><path d="m 22.561,14.864 a 8.106,8.106 0 0 1 5.631,2.285 l 2.285,-2.285 a 11.04,11.04 0 0 0 -7.916,-3.264 11.261,11.261 0 1 0 8,19.177 l -2.367,-2.285 a 7.965,7.965 0 0 1 -13.709,-5.549 8.2,8.2 0 0 1 8.079,-8.079" transform="translate(-2.079,-2.134)" id="path10"></path><path d="m 6.456,11.588 1.306,1.061 0.816,0.653 a 15.586,15.586 0 0 1 1.958,-2.611 L 9.72,10.038 8.415,8.976 A 17.3,17.3 0 0 1 21.063,3.427 17.105,17.105 0 0 1 33.222,8.487 L 35.589,6.12 A 20.527,20.527 0 0 0 5.232,7.344 L 3.6,9.3 5.4,10.769 Z" transform="translate(-0.662)" id="path11"></path><path d="M 32.8,37.764 A 17.163,17.163 0 0 1 20.478,42.987 17.537,17.537 0 0 1 10.114,39.56 17.834,17.834 0 0 1 4.239,31.56 L 5.871,31.07 6.85,30.744 A 11.692,11.692 0 0 1 6.12,27.4 L 5.059,27.726 3.346,28.3 2.122,28.708 0,29.277 0.734,31.644 a 20.2,20.2 0 0 0 7.345,10.445 20.419,20.419 0 0 0 27.011,-2.04 z" transform="translate(0,-5.041)" id="path12"></path></g><path d="m 94.497,27.908 0.571,0.979 16.892,-24.97 h -1.224 z" fill="#4d87a0" id="path13"></path><path d="m 111.96,4.08 0.245,-0.408 z" fill="#003864" id="path14"></path><path d="m 106.411,0.898 h -0.408 l -10.609,15.5 -0.653,0.9 -1.387,2.04 -0.571,0.9 1.958,3.019 13.3,-19.34 h 3.917 l 0.163,-0.245 0.653,-0.979 1.224,-1.8 z" fill="#003864" id="path15"></path><path d="m 77.36,0.898 h -4 l 19.666,30.928 2.04,-2.938 z" fill="#003864" id="path16"></path><path d="m 77.604,37.374 h -1.8 V 9.466 L 74.335,6.936 72.953,4.651 v 35.742 h 8.568 v -3.019 z" fill="#003864" id="path17"></path><path d="m 108.288,13.628 v 1.876 l 1.877,-2.775 v 24.645 h 0.979 V 11.343 l 1.958,-2.856 v 28.887 h 0.9 V 5.304 Z" fill="#4d87a0" id="path18"></path><path d="m 113.102,37.375 h -4.815 V 13.628 l -3.019,4.488 V 40.394 H 114 v -3.019 z" fill="#003864" id="path19"></path><path d="M 50.186,34.191 H 48.227 V 21.543 H 64.14 V 20.564 H 48.227 v -2.53 h -0.9 v 2.53 h -3.18 v 14.525 h 3.183 v 2.445 h 0.9 v -2.445 h 2.856 v -8.16 h -0.9 z m -2.938,0 H 45.047 V 21.543 h 2.2 z" fill="#4d87a0" id="path20"></path></svg>