<svg xmlns="http://www.w3.org/2000/svg" id="fdff18ab-6634-4dbc-b3c9-0a5d4190e27f" data-name="Calque 1" viewBox="0 0 151.926 58.002"><title>logo</title><g id="ef2d09c9-7363-420a-aa59-5d8a514430c3" data-name="logo"><g id="f244b550-a6e5-4543-b3b3-ce4723af94bb" data-name="Groupe 3941"><path id="e2e257aa-c2a7-4ffa-ba9f-41ebff411678" data-name="Trac&#xE9; 173" d="M57.825,28.405c.22-1.431,2.359-4.111,2.359-4.111-8.484-.055-11.331,3.8-11.331,3.8-.165-2.2,3.468-8.332,3.468-8.332s-6.859,4.824-11.559,8.04c-4.432,3.033-5.97,9.015-5.97,9.015A7.186,7.186,0,0,1,40.985,33.1c4.955,0,7.742,4.335,7.742,4.335h.62A10.167,10.167,0,0,1,57.4,33.1a9.426,9.426,0,0,1,7.266,3.765s-1.373-7.287-6.839-8.459" transform="translate(-7.643 -13.223)" fill="#a61866"></path><path id="ad63f6f7-1992-418a-a358-4d83e4e7c16d" data-name="Trac&#xE9; 174" d="M49.012,71.225c-7.856,0-15.18-3.155-19.59-8.44a2.2,2.2,0,1,1,3.2-3.019,2.237,2.237,0,0,1,.171.2c3.586,4.3,9.649,6.862,16.218,6.862,6.59,0,12.664-2.578,16.246-6.9a2.2,2.2,0,0,1,3.381,2.8c-4.407,5.312-11.745,8.483-19.627,8.483" transform="translate(-7.643 -13.223)" fill="#a61866"></path></g><g id="bf4ddc94-5af3-44af-b499-e75c0f9fe56d" data-name="Groupe 3942"><path id="e6460d90-e949-4206-95c9-ed54174d1035" data-name="Trac&#xE9; 175" d="M40.817,39.291a4.831,4.831,0,0,0-4.954,4.645v11.4h9.6V43.626a4.318,4.318,0,0,0-4.287-4.348c-.119,0-.239,0-.358.013" transform="translate(-7.643 -13.223)" fill="#005b89"></path><path id="b07babeb-6480-47da-8e0f-983feca45de5" data-name="Trac&#xE9; 176" d="M57.226,39.291a4.832,4.832,0,0,0-4.955,4.645v11.4h9.6V43.626a4.318,4.318,0,0,0-4.287-4.348c-.119,0-.239,0-.358.013" transform="translate(-7.643 -13.223)" fill="#005b89"></path><path id="a62a524e-b671-4338-a1b2-21ae5a270ef7" data-name="Trac&#xE9; 177" d="M74.486,21.275a4.025,4.025,0,1,1,4.026-4.027,4.1,4.1,0,0,1-4.026,4.025M71.08,29.942h6.813V55.331H71.081Z" transform="translate(-7.643 -13.223)" fill="#005b89"></path><rect id="e94d8c39-7ea0-44d3-ae8f-dbcf68a80bf0" data-name="Rectangle 39" x="78.301" y="0.002" width="6.813" height="42.11" fill="#005b89"></rect><path id="f88e1525-eedd-4628-b5d6-1621eed71964" data-name="Trac&#xE9; 178" d="M136.567,20.656l-3.716,6.5h-2.787l2.477-6.5a3.587,3.587,0,0,1-2.787-3.407,4.026,4.026,0,0,1,8.052,0,7.648,7.648,0,0,1-1.239,3.406" transform="translate(-7.643 -13.223)" fill="#005b89"></path><path id="f7391a25-185a-4f85-9101-d3eb28d49c6a" data-name="Trac&#xE9; 179" d="M152.139,47.6c0-3.406-13.005-1.549-13.005-11.147,0-3.715,4.025-7.741,9.909-7.741a13.371,13.371,0,0,1,10.219,4.335l-4.645,4.335a6.686,6.686,0,0,0-4.954-2.477c-2.168,0-3.1.929-3.1,2.167,0,3.406,13.006,1.548,13.006,11.147,0,4.335-4.026,8.36-10.528,8.36a15.423,15.423,0,0,1-11.458-4.954l4.645-4.335a8.776,8.776,0,0,0,6.194,3.1c2.477,0,3.716-1.239,3.716-2.786" transform="translate(-7.643 -13.223)" fill="#005b89"></path><path id="e908af6c-8b9e-4d7b-a3ca-bb2bf8a2a7fc" data-name="Trac&#xE9; 180" d="M126.735,44.521H105.426A7.092,7.092,0,0,0,107.892,49a7.745,7.745,0,0,0,5.115,1.664,8.85,8.85,0,0,0,6.39-2.6l5.588,2.624a13.192,13.192,0,0,1-5,4.385A15.672,15.672,0,0,1,113.06,56.5a13.689,13.689,0,0,1-10.132-3.923,13.352,13.352,0,0,1-3.912-9.827,13.8,13.8,0,0,1,3.9-10.046,13.1,13.1,0,0,1,9.78-4,13.587,13.587,0,0,1,10.157,4,14.455,14.455,0,0,1,3.912,10.555ZM120.1,39.3a6.653,6.653,0,0,0-2.592-3.6,7.512,7.512,0,0,0-4.491-1.385,7.934,7.934,0,0,0-4.867,1.555,8.637,8.637,0,0,0-2.434,3.426Z" transform="translate(-7.643 -13.223)" fill="#005b89"></path><path id="a9da1969-ba16-4165-82af-a70e4bd3c13f" data-name="Trac&#xE9; 181" d="M7.643,19.594H27.136v6.653H14.391V32.7H27.136v6.529H14.391v9.394H27.136V55.3H7.643Z" transform="translate(-7.643 -13.223)" fill="#005b89"></path></g><g id="b5ca354d-d0a5-424a-a831-fcf1caf965d2" data-name="Groupe 3943"><path id="ba8b7ecb-87cf-446f-af73-4498b48bd533" data-name="Trac&#xE9; 182" d="M73.138,62.184h.635l1.171,3.25h.011l1.177-3.25h.635l-1.46,3.9H74.6Z" transform="translate(-7.643 -13.223)" fill="#2f3030"></path><path id="f3339183-79f2-486f-95eb-a37680322caa" data-name="Trac&#xE9; 183" d="M80.977,64.132a2.119,2.119,0,0,1-.153.806A1.909,1.909,0,0,1,79.751,66a2.155,2.155,0,0,1-.809.151,2.131,2.131,0,0,1-.8-.151,1.9,1.9,0,0,1-1.07-1.061,2.187,2.187,0,0,1,0-1.611,1.9,1.9,0,0,1,.426-.641,1.932,1.932,0,0,1,.644-.421,2.093,2.093,0,0,1,.8-.151,2.136,2.136,0,0,1,.809.151,1.914,1.914,0,0,1,1.073,1.062,2.115,2.115,0,0,1,.153.806m-.613,0a1.553,1.553,0,0,0-.109-.588,1.419,1.419,0,0,0-.3-.465,1.353,1.353,0,0,0-.452-.307,1.5,1.5,0,0,0-1.135,0,1.345,1.345,0,0,0-.449.307,1.325,1.325,0,0,0-.293.465,1.592,1.592,0,0,0-.1.588,1.561,1.561,0,0,0,.109.588,1.412,1.412,0,0,0,.3.466,1.369,1.369,0,0,0,.451.307,1.506,1.506,0,0,0,1.135,0,1.4,1.4,0,0,0,.449-.307,1.377,1.377,0,0,0,.293-.466,1.642,1.642,0,0,0,.1-.588" transform="translate(-7.643 -13.223)" fill="#2f3030"></path><path id="a1174eca-c371-42d7-91dc-dc167f0e51a4" data-name="Trac&#xE9; 184" d="M81.238,62.184h3.011v.535h-1.2v3.367h-.6V62.721h-1.2Z" transform="translate(-7.643 -13.223)" fill="#2f3030"></path><path id="a774ca87-7d01-4658-8add-a8711fda618c" data-name="Trac&#xE9; 185" d="M86.145,64.413h-.674v1.672h-.6v-3.9h1.193a1.931,1.931,0,0,1,1.1.268.942.942,0,0,1,.4.841,1.016,1.016,0,0,1-.208.658,1.131,1.131,0,0,1-.6.362l1.059,1.773h-.675Zm-.674-.53h.591a1.187,1.187,0,0,0,.652-.148.5.5,0,0,0,.223-.443.478.478,0,0,0-.229-.439,1.234,1.234,0,0,0-.647-.14H85.47Z" transform="translate(-7.643 -13.223)" fill="#2f3030"></path><path id="a58ddfbf-5744-44b8-b0db-087ae3a80470" data-name="Trac&#xE9; 186" d="M90.879,65.551v.535H88.392v-3.9h2.42v.535H88.994v1.07h1.685v.535H89v1.226Z" transform="translate(-7.643 -13.223)" fill="#2f3030"></path><path id="e189f2c5-a31a-492e-bac1-bf4bd8bb030d" data-name="Trac&#xE9; 187" d="M95.762,63.042a.864.864,0,0,0-.39-.279,1.481,1.481,0,0,0-.558-.1,1.409,1.409,0,0,0-.566.112,1.345,1.345,0,0,0-.449.307,1.4,1.4,0,0,0-.3.466,1.533,1.533,0,0,0-.108.588,1.575,1.575,0,0,0,.1.587,1.355,1.355,0,0,0,.747.773,1.458,1.458,0,0,0,.569.112,1.258,1.258,0,0,0,.622-.142,1.143,1.143,0,0,0,.387-.338l.452.312a1.466,1.466,0,0,1-.237.273,1.665,1.665,0,0,1-.326.226,1.917,1.917,0,0,1-.9.215A2.177,2.177,0,0,1,94,66a1.944,1.944,0,0,1-.647-.421,1.88,1.88,0,0,1-.423-.641,2.1,2.1,0,0,1-.151-.805,2.041,2.041,0,0,1,.156-.806,1.949,1.949,0,0,1,.426-.641A1.892,1.892,0,0,1,94,62.268a2.126,2.126,0,0,1,.808-.15,2.019,2.019,0,0,1,.424.042,1.84,1.84,0,0,1,.388.122,1.729,1.729,0,0,1,.329.193,1.2,1.2,0,0,1,.248.251Z" transform="translate(-7.643 -13.223)" fill="#2f3030"></path><path id="b6141a49-c121-4396-81a7-d0847bd02e7e" data-name="Trac&#xE9; 188" d="M100.607,64.132a2.119,2.119,0,0,1-.153.806A1.906,1.906,0,0,1,99.381,66a2.155,2.155,0,0,1-.809.151,2.125,2.125,0,0,1-.8-.151A1.909,1.909,0,0,1,96.7,64.938a2.187,2.187,0,0,1,0-1.611,1.914,1.914,0,0,1,1.071-1.062,2.106,2.106,0,0,1,.8-.151,2.139,2.139,0,0,1,.809.151,1.913,1.913,0,0,1,1.073,1.062,2.112,2.112,0,0,1,.153.806m-.613,0a1.553,1.553,0,0,0-.109-.588,1.419,1.419,0,0,0-.3-.465,1.359,1.359,0,0,0-.451-.307,1.5,1.5,0,0,0-1.135,0,1.345,1.345,0,0,0-.449.307,1.325,1.325,0,0,0-.293.465,1.635,1.635,0,0,0-.1.588,1.561,1.561,0,0,0,.109.588,1.422,1.422,0,0,0,.3.466,1.373,1.373,0,0,0,.452.307,1.506,1.506,0,0,0,1.135,0,1.4,1.4,0,0,0,.449-.307,1.377,1.377,0,0,0,.293-.466,1.687,1.687,0,0,0,.1-.588" transform="translate(-7.643 -13.223)" fill="#2f3030"></path><path id="e111c165-9db9-47e0-8f83-21824d9eb607" data-name="Trac&#xE9; 189" d="M101.332,66.086v-3.9h.6v3.367h1.617v.535Z" transform="translate(-7.643 -13.223)" fill="#2f3030"></path><path id="b2168ced-d9f8-4a62-82f9-3ce80241c3d5" data-name="Trac&#xE9; 190" d="M104.176,66.086v-3.9h.6v3.367h1.617v.535Z" transform="translate(-7.643 -13.223)" fill="#2f3030"></path><path id="e407d6d0-7357-4cfd-ac52-ccc5d239ae21" data-name="Trac&#xE9; 191" d="M109.5,65.55v.535h-2.486v-3.9h2.42v.535h-1.817v1.07H109.3v.535h-1.683v1.226Zm-1.4-3.685-.675-.808h.652l.6.808Z" transform="translate(-7.643 -13.223)" fill="#2f3030"></path><path id="a6da0e8b-9784-449c-a773-84eef8632321" data-name="Trac&#xE9; 192" d="M113,63.025a1.313,1.313,0,0,0-.432-.265,1.663,1.663,0,0,0-.6-.1,1.409,1.409,0,0,0-.566.112,1.345,1.345,0,0,0-.449.307,1.4,1.4,0,0,0-.3.466,1.553,1.553,0,0,0-.109.588,1.6,1.6,0,0,0,.106.588,1.355,1.355,0,0,0,.747.773,1.458,1.458,0,0,0,.569.112c.144,0,.288-.008.432-.023a3.027,3.027,0,0,0,.421-.078V64.139h.6v1.772a4.285,4.285,0,0,1-.713.182,4.716,4.716,0,0,1-.741.059,2.182,2.182,0,0,1-.815-.151,1.93,1.93,0,0,1-.646-.421,1.9,1.9,0,0,1-.424-.641,2.123,2.123,0,0,1-.15-.806,2.041,2.041,0,0,1,.156-.806,1.967,1.967,0,0,1,.427-.641,1.892,1.892,0,0,1,.644-.421,2.126,2.126,0,0,1,.808-.15,2.2,2.2,0,0,1,.814.137,1.809,1.809,0,0,1,.6.376Z" transform="translate(-7.643 -13.223)" fill="#2f3030"></path><path id="e954be5f-35b3-4f36-9374-2443cccbba91" data-name="Trac&#xE9; 193" d="M114.785,62.184v2.425a1.434,1.434,0,0,0,.039.332.918.918,0,0,0,.139.323.79.79,0,0,0,.27.244.988.988,0,0,0,.856,0,.82.82,0,0,0,.267-.244.959.959,0,0,0,.14-.323,1.552,1.552,0,0,0,.039-.332V62.184h.6v2.425a2.28,2.28,0,0,1-.064.513,1.391,1.391,0,0,1-.231.5,1.3,1.3,0,0,1-.452.379,1.838,1.838,0,0,1-1.458,0,1.3,1.3,0,0,1-.455-.379,1.375,1.375,0,0,1-.231-.5,2.224,2.224,0,0,1-.064-.513V62.184Z" transform="translate(-7.643 -13.223)" fill="#2f3030"></path><path id="b65bf266-0cee-4a10-9113-c1863343519a" data-name="Trac&#xE9; 194" d="M120.573,65.551v.535h-2.488v-3.9h2.42v.535h-1.818v1.07h1.684v.535h-1.684v1.226Z" transform="translate(-7.643 -13.223)" fill="#2f3030"></path><path id="b74a28fa-da90-4620-9b2a-be38a30a8a26" data-name="Trac&#xE9; 195" d="M122.741,62.184h1.172a3.065,3.065,0,0,1,.557.047,1.413,1.413,0,0,1,.457.159.839.839,0,0,1,.31.3.933.933,0,0,1,.114.482.87.87,0,0,1-.159.518.744.744,0,0,1-.415.3V64a1.142,1.142,0,0,1,.607.359.976.976,0,0,1,.218.645.961.961,0,0,1-.131.515,1,1,0,0,1-.354.335,1.681,1.681,0,0,1-.519.178,3.577,3.577,0,0,1-.619.053h-1.238Zm.6,1.628h.736a.839.839,0,0,0,.228-.034.66.66,0,0,0,.212-.106.562.562,0,0,0,.218-.457.4.4,0,0,0-.064-.229.467.467,0,0,0-.179-.154,1,1,0,0,0-.264-.086,1.69,1.69,0,0,0-.317-.027h-.569Zm0,1.739h.635a2.487,2.487,0,0,0,.385-.03,1.193,1.193,0,0,0,.324-.1.634.634,0,0,0,.22-.178.444.444,0,0,0,.081-.266.609.609,0,0,0-.242-.523,1.086,1.086,0,0,0-.661-.179h-.742Z" transform="translate(-7.643 -13.223)" fill="#2f3030"></path><path id="edfff65d-0cfa-4673-9bda-31c7c723e78f" data-name="Trac&#xE9; 196" d="M130.116,64.132a2.081,2.081,0,0,1-.153.806A1.906,1.906,0,0,1,128.89,66a2.155,2.155,0,0,1-.809.151,2.131,2.131,0,0,1-.8-.151,1.91,1.91,0,0,1-1.07-1.061,2.177,2.177,0,0,1,0-1.611,1.886,1.886,0,0,1,.427-.641,1.917,1.917,0,0,1,.644-.421,2.093,2.093,0,0,1,.8-.151,2.136,2.136,0,0,1,.809.151,1.908,1.908,0,0,1,1.073,1.062,2.112,2.112,0,0,1,.153.806m-.613,0a1.593,1.593,0,0,0-.109-.588,1.419,1.419,0,0,0-.3-.465,1.353,1.353,0,0,0-.452-.307,1.5,1.5,0,0,0-1.135,0,1.347,1.347,0,0,0-.742.772,1.635,1.635,0,0,0-.1.588,1.539,1.539,0,0,0,.11.588,1.412,1.412,0,0,0,.3.466,1.373,1.373,0,0,0,.452.307,1.5,1.5,0,0,0,1.134,0,1.354,1.354,0,0,0,.742-.772,1.664,1.664,0,0,0,.1-.588" transform="translate(-7.643 -13.223)" fill="#2f3030"></path><path id="f13a3187-1211-461e-b7e2-8e88f49f26f8" data-name="Trac&#xE9; 197" d="M130.841,66.086v-3.9h.72l2.063,3.111h.011V62.186h.6v3.9h-.719l-2.063-3.1h-.011v3.1Z" transform="translate(-7.643 -13.223)" fill="#2f3030"></path><path id="aeddb954-2495-429d-bcff-456de6ad990a" data-name="Trac&#xE9; 198" d="M137.036,62.919c-.011-.011-.035-.032-.072-.062a.732.732,0,0,0-.148-.086,1.44,1.44,0,0,0-.218-.075,1.07,1.07,0,0,0-.281-.034.791.791,0,0,0-.256.039.645.645,0,0,0-.212.108.508.508,0,0,0-.142.167.422.422,0,0,0-.054.215.468.468,0,0,0,.056.237.568.568,0,0,0,.154.17,1.086,1.086,0,0,0,.222.128l.26.117c.133.059.266.12.4.184a1.7,1.7,0,0,1,.357.229,1.091,1.091,0,0,1,.259.325,1.037,1.037,0,0,1,.1.477,1.08,1.08,0,0,1-.091.449.981.981,0,0,1-.26.345,1.17,1.17,0,0,1-.4.22,1.551,1.551,0,0,1-.5.078,1.688,1.688,0,0,1-.48-.063,2.007,2.007,0,0,1-.379-.15,1.635,1.635,0,0,1-.268-.173,1.889,1.889,0,0,1-.15-.132l.184-.193.178-.191a1.113,1.113,0,0,0,.1.081,1.251,1.251,0,0,0,.192.118,1.5,1.5,0,0,0,.276.11,1.239,1.239,0,0,0,.348.048.707.707,0,0,0,.463-.151.5.5,0,0,0,.178-.4.489.489,0,0,0-.067-.259.714.714,0,0,0-.17-.189,1.19,1.19,0,0,0-.231-.141l-.256-.114c-.145-.063-.283-.125-.413-.187a1.492,1.492,0,0,1-.346-.22.92.92,0,0,1-.237-.309,1.029,1.029,0,0,1-.086-.448.973.973,0,0,1,.1-.449,1,1,0,0,1,.276-.337,1.293,1.293,0,0,1,.407-.215,1.625,1.625,0,0,1,.5-.075,1.544,1.544,0,0,1,.4.05,1.958,1.958,0,0,1,.321.117,1.511,1.511,0,0,1,.226.134,1.49,1.49,0,0,1,.123.1l-.178.2-.178.2" transform="translate(-7.643 -13.223)" fill="#2f3030"></path><path id="beecb5be-597f-4005-8f83-7083b0fd8938" data-name="Trac&#xE9; 199" d="M140.213,66.085h-.6v-3.9h1.11a1.933,1.933,0,0,1,1.1.271.95.95,0,0,1,.4.845.989.989,0,0,1-.385.845,1.853,1.853,0,0,1-1.115.287h-.507Zm0-3.367v1.176h.513a1.188,1.188,0,0,0,.652-.149.5.5,0,0,0,.223-.449.478.478,0,0,0-.232-.44,1.27,1.27,0,0,0-.649-.139Z" transform="translate(-7.643 -13.223)" fill="#2f3030"></path><path id="bde0b36e-3956-4ebf-a459-39dc84cda3c2" data-name="Trac&#xE9; 200" d="M142.884,66.086v-3.9h.6v3.367H145.1v.535Z" transform="translate(-7.643 -13.223)" fill="#2f3030"></path><path id="a389d8a9-0ffe-4e4a-b3d9-64526b59dff6" data-name="Trac&#xE9; 201" d="M145.856,66.085h-.631l1.634-3.9h.636l1.622,3.9h-.638l-.379-.909h-1.862Zm1.315-3.239-.714,1.8h1.428l-.7-1.8Z" transform="translate(-7.643 -13.223)" fill="#2f3030"></path><path id="a6aec753-0c97-4afb-9032-29179e04f324" data-name="Trac&#xE9; 202" d="M149.613,66.086v-3.9h.72L152.4,65.3h.011V62.186h.6v3.9h-.719l-2.063-3.1h-.011v3.1Z" transform="translate(-7.643 -13.223)" fill="#2f3030"></path><path id="a889a499-f645-418c-bbdd-efd692cbce37" data-name="Trac&#xE9; 203" d="M155.808,62.919c-.011-.011-.035-.032-.072-.062a.688.688,0,0,0-.148-.086,1.428,1.428,0,0,0-.217-.075,1.078,1.078,0,0,0-.282-.034.791.791,0,0,0-.256.039.64.64,0,0,0-.211.108.519.519,0,0,0-.142.167.436.436,0,0,0-.053.215.458.458,0,0,0,.056.237.552.552,0,0,0,.153.17,1.121,1.121,0,0,0,.223.128l.259.117c.133.059.266.12.4.184a1.619,1.619,0,0,1,.357.229,1.06,1.06,0,0,1,.259.325,1.037,1.037,0,0,1,.1.477,1.08,1.08,0,0,1-.091.449.981.981,0,0,1-.26.345,1.187,1.187,0,0,1-.4.22,1.551,1.551,0,0,1-.5.078,1.688,1.688,0,0,1-.48-.063,2.007,2.007,0,0,1-.379-.15,1.761,1.761,0,0,1-.269-.173q-.1-.087-.15-.132c.062-.066.123-.131.183-.193l.179-.191a.872.872,0,0,0,.1.081,1.177,1.177,0,0,0,.192.118,1.5,1.5,0,0,0,.276.11,1.206,1.206,0,0,0,.349.048.7.7,0,0,0,.462-.151.534.534,0,0,0,.112-.655.714.714,0,0,0-.17-.189,1.19,1.19,0,0,0-.231-.141l-.257-.114q-.218-.094-.412-.187a1.492,1.492,0,0,1-.346-.22.92.92,0,0,1-.237-.309,1.029,1.029,0,0,1-.086-.448.961.961,0,0,1,.1-.449,1,1,0,0,1,.276-.337,1.293,1.293,0,0,1,.407-.215,1.625,1.625,0,0,1,.5-.075,1.544,1.544,0,0,1,.4.05,2.008,2.008,0,0,1,.32.117,1.511,1.511,0,0,1,.226.134,1.49,1.49,0,0,1,.123.1l-.178.2-.179.2" transform="translate(-7.643 -13.223)" fill="#2f3030"></path><path id="faeff4e9-870d-42c1-b1d5-a3476f7fc3c8" data-name="Trac&#xE9; 204" d="M158.427,62.184h.6l-.014,2.737h-.569Zm0,3.283h.6v.618h-.6Z" transform="translate(-7.643 -13.223)" fill="#2f3030"></path></g></g></svg>