<svg xmlns="http://www.w3.org/2000/svg" xmlns:xlink="http://www.w3.org/1999/xlink" id="Calque_2" viewBox="0 0 1221 547.39"><defs><style>.cls-1{fill:#006;}.cls-2{fill:url(#Dégradé_sans_nom_2-2);}.cls-3{fill:url(#Dégradé_sans_nom_2);}.cls-4{fill:url(#Dégradé_sans_nom_6-2);}.cls-5{fill:url(#Dégradé_sans_nom_3);}.cls-6{fill:url(#Dégradé_sans_nom_4);}.cls-7{fill:url(#Dégradé_sans_nom_6);}</style><linearGradient id="D&#xE9;grad&#xE9;_sans_nom_2" x1="844.68" y1="433.07" x2="844.68" y2="197.8" gradientTransform="translate(0 547.87) scale(1 -1)" gradientUnits="userSpaceOnUse"><stop offset="0" stop-color="#f06"></stop><stop offset=".04" stop-color="#e60070"></stop><stop offset=".15" stop-color="#b10085"></stop><stop offset=".26" stop-color="#820098"></stop><stop offset=".37" stop-color="#5a00a8"></stop><stop offset=".49" stop-color="#3900b5"></stop><stop offset=".6" stop-color="#2000bf"></stop><stop offset=".72" stop-color="#0e00c6"></stop><stop offset=".85" stop-color="#0300cb"></stop><stop offset="1" stop-color="#00c"></stop></linearGradient><linearGradient id="D&#xE9;grad&#xE9;_sans_nom_2-2" x1="894.6" x2="894.6" xlink:href="#D&#xE9;grad&#xE9;_sans_nom_2"></linearGradient><linearGradient id="D&#xE9;grad&#xE9;_sans_nom_3" x1="911.87" y1="441.95" x2="911.87" y2="232.71" gradientTransform="translate(0 547.87) scale(1 -1)" gradientUnits="userSpaceOnUse"><stop offset=".08" stop-color="#f06"></stop><stop offset=".16" stop-color="#f60069" stop-opacity=".98"></stop><stop offset=".29" stop-color="#df0073" stop-opacity=".94"></stop><stop offset=".44" stop-color="#b80082" stop-opacity=".86"></stop><stop offset=".63" stop-color="#820098" stop-opacity=".76"></stop><stop offset=".83" stop-color="#3f00b3" stop-opacity=".62"></stop><stop offset="1" stop-color="#00c" stop-opacity=".5"></stop></linearGradient><linearGradient id="D&#xE9;grad&#xE9;_sans_nom_4" x1="803.41" y1="433.07" x2="803.41" y2="197.8" gradientTransform="translate(0 547.87) scale(1 -1)" gradientUnits="userSpaceOnUse"><stop offset="0" stop-color="#f06"></stop><stop offset=".04" stop-color="#e60070" stop-opacity=".95"></stop><stop offset=".15" stop-color="#b10085" stop-opacity=".85"></stop><stop offset=".26" stop-color="#820098" stop-opacity=".75"></stop><stop offset=".37" stop-color="#5a00a8" stop-opacity=".68"></stop><stop offset=".49" stop-color="#3900b5" stop-opacity=".61"></stop><stop offset=".6" stop-color="#2000bf" stop-opacity=".56"></stop><stop offset=".72" stop-color="#0e00c6" stop-opacity=".53"></stop><stop offset=".85" stop-color="#0300cb" stop-opacity=".51"></stop><stop offset="1" stop-color="#00c" stop-opacity=".5"></stop></linearGradient><linearGradient id="D&#xE9;grad&#xE9;_sans_nom_6" x1="1014.77" y1="442.6" x2="1365.56" y2="442.6" gradientTransform="translate(0 547.87) scale(1 -1)" gradientUnits="userSpaceOnUse"><stop offset="0" stop-color="#f06"></stop><stop offset=".06" stop-color="#ec006e"></stop><stop offset=".42" stop-color="#880096"></stop><stop offset=".7" stop-color="#3f00b3"></stop><stop offset=".9" stop-color="#1100c5"></stop><stop offset="1" stop-color="#00c"></stop></linearGradient><linearGradient id="D&#xE9;grad&#xE9;_sans_nom_6-2" y1="400.49" x2="1365.56" y2="400.49" xlink:href="#D&#xE9;grad&#xE9;_sans_nom_6"></linearGradient></defs><g id="Calque_1-2"><path class="cls-1" d="m125.47,84.22H0v-42.05h303.86v42.05h-125.47v344.16h-52.92V84.22Z"></path><path class="cls-1" d="m266.47,199.19c14.01-12.83,30.52-22.63,48.49-28.79,17.69-6.28,36.32-9.53,55.1-9.6,19.1,0,35.54,2.39,49.32,7.16,13.78,4.77,25.08,11.19,33.89,19.26,8.53,7.68,15.22,17.19,19.56,27.81,4.21,10.41,6.37,21.53,6.34,32.76v133.24c0,9.18.18,17.62.55,25.33s.92,15.04,1.65,22h-43.84c-1.1-13.25-1.65-26.5-1.65-39.77h-1.1c-11.03,16.85-24.08,28.75-39.16,35.71-15.08,6.96-32.54,10.44-52.39,10.44-11.76.06-23.47-1.6-34.76-4.92-10.53-3.03-20.38-8.07-29-14.84-8.27-6.59-14.96-14.94-19.58-24.45-4.77-9.7-7.16-20.96-7.16-33.78,0-16.85,3.77-30.95,11.3-42.3,7.53-11.35,17.83-20.59,30.89-27.74,13.05-7.14,28.31-12.27,45.78-15.38,18.49-3.2,37.23-4.76,56-4.67h36.41v-11c-.04-6.8-1.35-13.53-3.87-19.85-2.62-6.69-6.56-12.79-11.59-17.92-5.47-5.54-12.04-9.86-19.3-12.68-7.72-3.16-16.91-4.74-27.57-4.74-8.45-.12-16.88.8-25.1,2.73-6.73,1.66-13.29,3.94-19.59,6.81-5.66,2.58-11.03,5.77-16,9.52-4.79,3.63-9.39,7.08-13.8,10.35l-29.82-30.69Zm140.15,103.73c-12.07.02-24.14.66-36.15,1.92-11.49,1.09-22.8,3.58-33.68,7.41-10.12,3.66-18.4,8.78-24.84,15.35-6.44,6.57-9.66,14.98-9.67,25.23,0,14.99,5.06,25.78,15.19,32.36,10.13,6.58,23.84,9.87,41.13,9.87,13.61,0,25.21-2.28,34.78-6.85,8.98-4.11,16.91-10.2,23.19-17.82,5.83-7.2,10.15-15.51,12.7-24.42,2.53-8.64,3.83-17.59,3.87-26.59v-16.46h-26.52Z"></path><path class="cls-1" d="m757.83,168.47v36.38h-1.56c-9.56-13.94-22.7-24.76-39.43-32.45-16.13-7.58-33.73-11.52-51.55-11.56-20.21,0-38.5,3.48-54.86,10.45-15.87,6.64-30.16,16.58-41.9,29.16-11.71,12.68-20.79,27.54-26.74,43.74-6.31,17.16-9.47,35.31-9.32,53.59-.17,18.48,3.01,36.83,9.37,54.18,5.88,16.15,14.96,30.95,26.69,43.51,11.82,12.43,26.11,22.25,41.94,28.84,16.36,6.96,34.65,10.44,54.86,10.45,18.31.09,36.4-3.95,52.93-11.83,16.54-7.88,29.21-18.61,38-32.18h1.56v156.64h49V168.47h-48.99Zm-6.53,166c-3.69,10.61-9.5,20.36-17.09,28.65-7.59,8.07-16.79,14.45-27,18.74-10.67,4.59-22.61,6.88-35.83,6.88s-25.17-2.29-35.84-6.88c-10.21-4.29-19.41-10.67-27-18.74-7.6-8.29-13.42-18.04-17.13-28.65-8.08-23.76-8.08-49.52,0-73.28,3.68-10.63,9.48-20.41,17.06-28.72,7.59-8.06,16.79-14.44,27-18.73,10.67-4.59,22.61-6.89,35.84-6.89s25.17,2.3,35.83,6.89c10.21,4.29,19.41,10.67,27,18.73,7.59,8.29,13.4,18.04,17.09,28.65,8.09,23.76,8.09,49.52,0,73.28l.07.07Z"></path><path class="cls-1" d="m1012.15,380.98v45c-.52.3-1.13.54-1.68.81-5.63,2.84-12.63,4.88-21.14,6-7.19,1.09-14.43,1.74-21.7,1.92-19.06,0-33.81-2.67-44.26-8-10.45-5.33-18.14-12.21-23.08-20.63-3.81-6.55-6.45-13.72-7.8-21.18-.45-2.37-.79-4.76-1-7.16-.92-10.45-1.38-21-1.37-31.64v-135.8h-48.08v-41.83h48.08v-84.25h49.5v84.25h70.85v41.87h-70.85v118.34c0,7.33.18,14.58.55,21.75.22,4.83,1.01,9.61,2.36,14.25.49,1.7,1.08,3.37,1.76,5,2.26,5.55,6.08,10.33,11,13.76,4.94,3.49,12.18,5.24,21.71,5.23,6.08-.02,12.14-.57,18.12-1.65,5.36-.93,10.54-2.69,15.36-5.2.55-.27,1.12-.53,1.67-.84Z"></path><g id="Onde"><path class="cls-3" d="m842.04,168.47v41.87h0c0-14.12,1.78-28.19,5.29-41.87h-5.29Z"></path><path class="cls-2" d="m899.07,84.22h-8.95v8.48c2.9-2.94,5.88-5.77,8.95-8.48Z"></path><path class="cls-5" d="m939.62,105.92v59.18c-17.82,27.67-17.82,63.21,0,90.88v59.18c-23.17-15.71-40.48-38.66-49.2-65.26,0-.11-.08-.21-.11-.32s-.13-.39-.19-.58v-38.7h-6c.02-40.37,19.38-78.3,52.06-102,1.16-.78,2.29-1.6,3.44-2.38Z"></path><path class="cls-6" d="m806.87,264.27v-95.8h-2.72c-6.42,31.74-5.49,64.52,2.72,95.84v-.04Z"></path><path class="cls-7" d="m1010.47,0v42.11c90.29,0,168.43,71.66,168.43,168.43h42.1c0-115.72-92.89-210.02-210.53-210.54Z"></path><path class="cls-4" d="m1010.47,84.22v42.1c46.46,0,84.48,38,84.21,84.22h42.11c.14-69.63-56.19-126.18-125.82-126.32-.17,0-.33,0-.5,0Z"></path></g></g></svg>